<svg width="381" height="51" viewBox="0 0 381 51" fill="none" xmlns="http://www.w3.org/2000/svg">
<path fill-rule="evenodd" clip-rule="evenodd" d="M0 10.6726V49.6416H29.172V43.5186H6.847V33.0516H26.388V26.9286H6.847V16.7966H28.893V10.6726H0Z" fill="#273545"/>
<path fill-rule="evenodd" clip-rule="evenodd" d="M79.8779 49.6419H86.7249V37.1159H94.4639C103.037 37.1159 110.051 32.5508 110.051 23.8109V23.6999C110.051 15.8499 104.373 10.6729 95.2429 10.6729H79.8779V49.6419ZM86.7249 30.9369V16.9079H94.6859C99.8079 16.9079 103.093 19.3019 103.093 23.8669V23.9779C103.093 28.0419 99.8639 30.9369 94.6859 30.9369H86.7249Z" fill="#273545"/>
<path fill-rule="evenodd" clip-rule="evenodd" d="M114.14 49.6419H143.311V43.5179H120.987V33.0519H140.528V26.9279H120.987V16.7969H143.033V10.6729H114.14V49.6419Z" fill="#273545"/>
<path fill-rule="evenodd" clip-rule="evenodd" d="M148.685 49.6419H155.532V36.0579H164.106L173.681 49.6419H181.809L171.287 34.8889C176.687 33.3309 180.529 29.4889 180.529 23.0869V22.9759C180.529 19.5799 179.359 16.6849 177.3 14.5699C174.794 12.1199 170.953 10.6729 166.054 10.6729H148.685V49.6419ZM155.532 29.9909V16.9079H165.498C170.563 16.9079 173.57 19.1899 173.57 23.3659V23.4769C173.57 27.4299 170.452 29.9909 165.553 29.9909H155.532Z" fill="#273545"/>
<path fill-rule="evenodd" clip-rule="evenodd" d="M216.076 50.4211C224.649 50.4211 229.604 46.6911 233.278 41.6251L225.15 35.8361C222.812 38.6751 220.418 40.5671 216.354 40.5671C210.899 40.5671 207.057 36.0031 207.057 30.1571V30.0461C207.057 24.3681 210.899 19.6911 216.354 19.6911C220.084 19.6911 222.645 21.5281 224.872 24.2561L233 17.9651C229.548 13.2341 224.427 9.89307 216.466 9.89307C204.663 9.89307 195.979 18.8011 195.979 30.1571V30.2691C195.979 41.9041 204.942 50.4211 216.076 50.4211Z" fill="#273545"/>
<path fill-rule="evenodd" clip-rule="evenodd" d="M237.954 49.6419H269.575V40.4559H248.643V34.2769H267.348V25.7589H248.643V19.8029H269.296V10.6729H237.954V49.6419Z" fill="#273545"/>
<path fill-rule="evenodd" clip-rule="evenodd" d="M275.142 49.6419H285.942V38.5079H291.342C300.973 38.5079 308.043 33.6639 308.043 24.4229V24.3119C308.043 15.7389 301.697 10.6729 291.899 10.6729H275.142V49.6419ZM285.942 30.0459V19.7469H291.064C294.905 19.7469 297.299 21.4729 297.299 24.8129V24.9249C297.299 27.9859 294.905 30.0459 291.119 30.0459H285.942Z" fill="#273545"/>
<path fill-rule="evenodd" clip-rule="evenodd" d="M322.127 49.6419H332.927V20.1369H344.618V10.6729H310.492V20.1369H322.127V49.6419Z" fill="#273545"/>
<path fill-rule="evenodd" clip-rule="evenodd" d="M349.35 49.6419H380.971V40.4559H360.039V34.2769H378.744V25.7589H360.039V19.8029H380.692V10.6729H349.35V49.6419Z" fill="#273545"/>
<mask id="mask0_70:2" style="mask-type:alpha" maskUnits="userSpaceOnUse" x="31" y="0" width="56" height="33">
<path fill-rule="evenodd" clip-rule="evenodd" d="M77.417 2.09C71.036 6.685 64.656 11.282 58.274 15.876C57.262 16.605 55.654 18.136 54.398 18.183C53.105 18.232 51.385 16.768 50.319 16.075L42.969 11.298C40.189 9.492 40.981 9.564 37.667 9.564H31.001L52.294 30.857C52.81 31.373 53.304 31.902 53.807 32.431C53.875 32.503 53.979 32.617 54.088 32.728C54.634 32.214 55.476 31.259 55.799 30.936C66.109 20.627 76.437 10.334 86.729 0.007H83.571C82.893 0.007 82.361 0 81.929 0C79.826 0 80.093 0.164 77.417 2.09Z" fill="white"/>
</mask>
<g mask="url(#mask0_70:2)">
<path fill-rule="evenodd" clip-rule="evenodd" d="M77.417 2.09C71.036 6.685 64.656 11.282 58.274 15.876C57.262 16.605 55.654 18.136 54.398 18.183C53.105 18.232 51.385 16.768 50.319 16.075L42.969 11.298C40.189 9.492 40.981 9.564 37.667 9.564H31.001L52.294 30.857C52.81 31.373 53.304 31.902 53.807 32.431C53.875 32.503 53.979 32.617 54.088 32.728C54.634 32.214 55.476 31.259 55.799 30.936C66.109 20.627 76.437 10.334 86.729 0.007H83.571C82.893 0.007 82.361 0 81.929 0C79.826 0 80.093 0.164 77.417 2.09Z" fill="url(#paint0_linear_70:2)"/>
</g>
<path fill-rule="evenodd" clip-rule="evenodd" d="M55.5996 34.0264C60.9926 38.6584 69.4216 45.8804 74.1436 49.9394V46.7274C74.1436 42.7474 74.3816 43.7984 72.0596 40.5734L62.4046 27.1394L57.2026 32.3394C56.6546 32.8874 56.1576 33.4814 55.5996 34.0264Z" fill="#273545"/>
<path fill-rule="evenodd" clip-rule="evenodd" d="M52.5804 34.0229C47.1874 38.6539 38.7564 45.8789 34.0324 49.9399V46.7269C34.0324 42.7479 33.7934 43.7989 36.1154 40.5739C38.2264 37.6409 42.9484 31.0629 45.7704 27.1389L50.8914 32.2599C51.3944 32.7619 51.8794 33.2829 52.3684 33.7979L52.5804 34.0229Z" fill="#273545"/>
<defs>
<linearGradient id="paint0_linear_70:2" x1="64.2938" y1="21.752" x2="65.6356" y2="12.7747" gradientUnits="userSpaceOnUse">
<stop stop-color="#3AAA66"/>
<stop offset="1" stop-color="#60B67E"/>
</linearGradient>
</defs>
</svg>
